<svg width="38pt" height="35pt" viewBox="-2 -2 42 39" xmlns="http://www.w3.org/2000/svg"><g id="fontsvg1691630834293" stroke-linecap="round" fill-rule="evenodd" stroke="#000000" stroke-width="1mm" fill="#ff00e2"><path d="M 35.01 3.076 L 35.01 3.125 Q 33.789 1.66 32.08 0.879 A 9.446 9.446 0 0 0 29.877 0.195 A 12.513 12.513 0 0 0 28.125 0 A 10.071 10.071 0 0 0 26.238 0.168 A 7.324 7.324 0 0 0 24.17 0.879 A 10.038 10.038 0 0 0 21.24 3.125 Q 20.343 4.172 19.761 4.875 A 55.67 55.67 0 0 0 19.434 5.274 Q 18.813 6.037 18.753 6.241 A 0.214 0.214 0 0 0 18.75 6.25 A 0.536 0.536 0 0 0 18.708 6.147 Q 18.582 5.896 18.115 5.274 A 31.774 31.774 0 0 0 17.761 4.846 Q 17.175 4.151 16.26 3.125 Q 15.039 1.758 13.428 0.879 A 7.217 7.217 0 0 0 11.489 0.2 Q 10.637 0.025 9.657 0.003 A 12.676 12.676 0 0 0 9.375 0 A 12.196 12.196 0 0 0 7.294 0.262 A 9.26 9.26 0 0 0 5.42 0.879 A 8.221 8.221 0 0 0 2.49 3.125 A 10.575 10.575 0 0 0 1.225 4.929 A 8.964 8.964 0 0 0 0.684 6.104 Q 0.049 7.666 0 9.375 Q 0 10.395 0.238 12.095 A 46.954 46.954 0 0 0 0.342 12.793 A 14.1 14.1 0 0 0 0.896 14.919 Q 1.352 16.256 2.1 17.725 Q 2.783 19.043 4.15 20.752 Q 5.518 22.51 7.568 24.561 A 86.902 86.902 0 0 0 9.801 26.71 Q 11.038 27.862 12.451 29.102 Q 15.234 31.592 18.75 34.375 A 188.284 188.284 0 0 0 22.083 31.677 A 141.323 141.323 0 0 0 25.049 29.151 Q 27.832 26.709 29.883 24.61 Q 31.982 22.51 33.35 20.801 A 23.59 23.59 0 0 0 34.3 19.58 Q 34.727 18.989 35.052 18.446 A 10.883 10.883 0 0 0 35.449 17.725 Q 36.484 15.578 36.917 13.762 A 12.383 12.383 0 0 0 37.109 12.793 A 42.732 42.732 0 0 0 37.28 11.737 Q 37.446 10.616 37.487 9.84 A 8.953 8.953 0 0 0 37.5 9.375 Q 37.451 7.666 36.865 6.104 A 10.857 10.857 0 0 0 35.715 4.001 A 13.205 13.205 0 0 0 35.01 3.076 Z" vector-effect="non-scaling-stroke"/></g></svg>
